<?xml version="1.0" encoding="utf-8"?>
<!-- Generator: Adobe Illustrator 16.0.0, SVG Export Plug-In . SVG Version: 6.00 Build 0)  -->
<!DOCTYPE svg PUBLIC "-//W3C//DTD SVG 1.1//EN" "http://www.w3.org/Graphics/SVG/1.1/DTD/svg11.dtd">
<svg version="1.1" id="Layer_1" xmlns="http://www.w3.org/2000/svg" xmlns:xlink="http://www.w3.org/1999/xlink" x="0px" y="0px"
	 width="75px" height="75px" viewBox="0 0 75 75" enable-background="new 0 0 75 75" xml:space="preserve">
<g>
	<radialGradient id="SVGID_1_" cx="24.022" cy="22.1606" r="18.1732" gradientUnits="userSpaceOnUse">
		<stop  offset="0" style="stop-color:#719597;stop-opacity:0.4"/>
		<stop  offset="1" style="stop-color:#648485"/>
	</radialGradient>
	<path fill="url(#SVGID_1_)" d="M42.716,23.218c0,7.141-4.007,13.347-9.889,16.494V20.24c-1.813,0.947-5.042,1.576-8.718,1.576
		c-3.676,0-6.905-0.629-8.717-1.576v19.558c-5.983-3.107-10.064-9.37-10.064-16.58c0-10.325,8.369-18.695,18.693-18.695
		C34.342,4.523,42.716,12.894,42.716,23.218z"/>
	<path fill="#82AED1" d="M32.827,20.24v19.472c-0.893,0.474-1.827,0.884-2.799,1.208V30.733c0-1.353-2.723-2.449-6.076-2.449
		c-3.352,0-6.074,1.097-6.074,2.449v10.139c-0.861-0.293-1.69-0.654-2.486-1.074V20.24c1.812,0.947,5.041,1.576,8.717,1.576
		C27.786,21.816,31.014,21.187,32.827,20.24z"/>
	<path fill="none" d="M30.028,30.733V40.92c-1.882,0.644-3.906,0.992-6.007,0.992c-2.155,0-4.226-0.362-6.143-1.04V30.733
		c0,1.358,2.722,2.456,6.074,2.456C27.306,33.189,30.028,32.091,30.028,30.733z"/>
	<path fill="none" stroke="#82AED1" stroke-miterlimit="10" d="M30.028,30.733c0,1.358-2.723,2.456-6.076,2.456
		c-3.352,0-6.074-1.098-6.074-2.456c0-1.353,2.722-2.449,6.074-2.449C27.306,28.284,30.028,29.38,30.028,30.733z"/>
	<ellipse fill="#FFFFFF" cx="24.109" cy="18.428" rx="11.84" ry="3.777"/>
	<ellipse fill="#84AFD2" cx="24.109" cy="17.982" rx="8.803" ry="3.105"/>
	<line fill="none" stroke="#FDFEFF" stroke-width="2" stroke-miterlimit="10" x1="15.392" y1="20.24" x2="15.392" y2="40.199"/>
	<line fill="none" stroke="#FDFEFF" stroke-width="2" stroke-miterlimit="10" x1="32.827" y1="20.24" x2="32.827" y2="40.199"/>
</g>
<path fill="#2B2C2B" stroke="#010101" stroke-miterlimit="10" d="M23.692,1.498c-2.865,0-5.601,0.543-8.107,1.53
	c-4.427,1.748-8.15,4.878-10.626,8.862c-2.087,3.346-3.292,7.298-3.292,11.528c0,12.103,9.861,21.922,22.025,21.922
	c1.872,0,3.693-0.234,5.429-0.674c1.018-0.26,2.006-0.581,2.963-0.979l0.023-0.004l3.009-1.52l0.018-0.015
	c1.457-0.88,2.811-1.932,4.021-3.123c4.05-3.976,6.558-9.502,6.558-15.609C45.713,11.31,35.858,1.498,23.692,1.498z M43.031,23.794
	c-0.072,3.007-0.869,5.835-2.215,8.331c-3.188,5.902-9.48,9.917-16.716,9.917c-10.454,0-18.932-8.386-18.932-18.729
	c0-7.125,4.02-13.319,9.941-16.486c0,0,0.006,0,0.013,0c2.673-1.432,5.73-2.241,8.978-2.241c6.571,0,12.356,3.304,15.752,8.324
	c0.005,0.019,0.013,0.03,0.024,0.043c2,2.963,3.161,6.526,3.161,10.36c0,0.131,0,0.267-0.007,0.396V23.794z"/>
<path fill="none" stroke="#010101" stroke-miterlimit="10" d="M43.038,23.312c0,0.131,0,0.267-0.007,0.396
	c-0.098-3.927-1.24-7.601-3.154-10.756C41.877,15.916,43.038,19.478,43.038,23.312z"/>
<rect x="38.408" y="36.075" transform="matrix(-0.7092 -0.705 0.705 -0.7092 39.6163 96.5458)" fill="#FFFFFF" stroke="#010101" stroke-miterlimit="10" width="2.619" height="8.057"/>
<rect x="40.33" y="39.603" transform="matrix(-0.71 -0.7042 0.7042 -0.71 41.3938 100.6327)" fill="none" stroke="#010101" stroke-miterlimit="10" width="2.173" height="4.381"/>
<linearGradient id="SVGID_2_" gradientUnits="userSpaceOnUse" x1="51.833" y1="58.7305" x2="58.9346" y2="54.6304" gradientTransform="matrix(0.9615 -0.2749 0.2749 0.9615 -12.1211 17.7388)">
	<stop  offset="0" style="stop-color:#EE282E;stop-opacity:0.4"/>
	<stop  offset="1" style="stop-color:#951A1E"/>
</linearGradient>
<path fill="url(#SVGID_2_)" stroke="#010101" stroke-miterlimit="10" d="M44.654,40.073c0,0,28.764,26.466,28.868,28.66
	c0.025,0.6-4.299,4.991-4.93,4.968c-1.572-0.058-28.869-28.659-28.869-28.659L44.654,40.073z"/>
</svg>
